<svg width="72" height="71" viewBox="0 0 72 71" fill="none" xmlns="http://www.w3.org/2000/svg"><path d="M57.24 5.352v.758L39.031.36a7.69 7.69 0 0 0-6.46.847l-7.536 4.796a7.665 7.665 0 0 0-3.475 5.311H4.77a1.193 1.193 0 0 0-1.192 1.193v26.235a1.192 1.192 0 0 0 1.192 1.192h50.085a1.192 1.192 0 0 0 1.193-1.192V26.006c.16-.12.318-.247.47-.382h.722v2.385a1.192 1.192 0 0 0 1.193 1.193H71.55v-2.385H59.625V6.544H71.55V4.16H58.433a1.193 1.193 0 0 0-1.193 1.193ZM38.45 31.587c.474 0 .946-.054 1.408-.16a10.696 10.696 0 0 0-2.822 6.122h-6.03V13.7h.903a3.867 3.867 0 0 1 2.734 6.601l-.614.614a6.253 6.253 0 0 0 4.42 10.673Zm8.059-3.51c-.882.098-1.747.305-2.577.617l2.577-2.576v1.96Zm0 2.404v7.068h-7.069a8.364 8.364 0 0 1 7.069-7.068ZM28.62 37.549h-4.77V13.7h4.77v23.85Zm-7.155 0h-6.03a10.751 10.751 0 0 0-9.472-9.472v-4.906a10.75 10.75 0 0 0 9.472-9.472h6.03v23.85ZM13.031 13.7a8.364 8.364 0 0 1-7.068 7.069v-7.069h7.068ZM5.963 30.481a8.364 8.364 0 0 1 7.068 7.068H5.963v-7.068Zm47.7 7.068h-4.77V27.231a7.992 7.992 0 0 0 4.77 0v10.318Zm2.384-14.31c-.316 0-.62.126-.843.35a5.56 5.56 0 0 1-7.854 0 1.193 1.193 0 0 0-1.686 0l-4.48 4.48a3.868 3.868 0 1 1-5.47-5.468l.614-.614a6.251 6.251 0 0 0-4.42-10.673h-7.925a5.297 5.297 0 0 1 2.332-3.3l7.536-4.795a5.311 5.311 0 0 1 4.462-.585L57.24 8.611v14.628h-1.193ZM7.155 69.747v-1.193h3.577a1.193 1.193 0 0 0 1.193-1.192v-1.26l.113.08a25.54 25.54 0 0 0 32.904-2.723l8.968-8.968a5.408 5.408 0 0 0-6.888-8.281 4.555 4.555 0 0 0-7.602-1.034 4.65 4.65 0 0 0-6.9 2.861l-1.254 5.015h-6.922l-.843-.844a9.629 9.629 0 0 0-11.576-1.555v-1.179a1.192 1.192 0 0 0-1.193-1.192H7.155a1.192 1.192 0 0 0-1.192-1.193H0v2.385h4.77v19.08H0v2.385h5.963a1.193 1.193 0 0 0 1.192-1.192Zm35.21-23.727a2.171 2.171 0 0 1 2.695 2.023l-8.321 8.32a4.755 4.755 0 0 0-.593-1.214l4.884-8.14a2.157 2.157 0 0 1 1.335-.989Zm-7.531 2.596a2.267 2.267 0 0 1 3.306-1.426l-3.818 6.363a4.721 4.721 0 0 0-.655-.269l1.167-4.668Zm-18.139 3.158a7.193 7.193 0 0 1 5.12 2.121l1.192 1.192c.223.224.527.35.843.35h8.347a2.385 2.385 0 1 1 0 4.77H21.465v2.385h10.732a4.774 4.774 0 0 0 4.203-2.517L47.947 48.53a3.023 3.023 0 0 1 4.276 4.276l-8.968 8.967a23.155 23.155 0 0 1-29.831 2.47l-1.499-1.072v-9.6a7.185 7.185 0 0 1 4.77-1.796ZM9.54 50.667v15.502H7.155V50.667H9.54Z" fill="#ca2c37"/></svg>
