<svg width="70" height="70" viewBox="0 0 70 70" fill="none" xmlns="http://www.w3.org/2000/svg"><path d="M65.562 33.789a14.02 14.02 0 0 1-11.69-6.257l-.936-1.405-.938 1.405a14.02 14.02 0 0 1-11.69 6.257h-4.267v18.06c0 4.366 1.966 8.47 5.25 11.223H18.02v-4.505h14.641V38.294H9.01v9.01H2.253V2.253h49.556v20.273h2.253V0H0v48.897l16.428 16.428h28.325L52.936 70l9.517-5.438A14.674 14.674 0 0 0 69.83 51.85V33.789h-4.268Zm-49.794 27.69L3.845 49.558h11.923V61.48Zm-4.505-14.175v-6.758H30.41v15.769H18.02v-9.01h-6.757Zm56.314 4.546c0 4.435-2.392 8.556-6.242 10.757l-8.4 4.8-8.4-4.8a12.418 12.418 0 0 1-6.241-10.757V36.04h2.015c4.933 0 9.546-2.213 12.627-5.99a16.267 16.267 0 0 0 12.626 5.99h2.015V51.85Z" fill="#63A63E"/><path d="M63.072 45.052v6.798a7.902 7.902 0 0 1-3.972 6.846l1.117 1.955a10.158 10.158 0 0 0 5.108-8.801v-6.798h-2.253ZM6.758 4.505v6.758h40.546V4.505H6.758ZM45.05 9.01H9.011V6.758h36.04V9.01ZM62.276 38.624 47.304 53.596l-3.709-3.71-1.592 1.593 5.301 5.302 16.564-16.564-1.592-1.593ZM28.157 42.799H13.515v2.252h14.642V42.8ZM28.157 47.304h-7.884v2.253h7.884v-2.253ZM28.157 51.81h-7.884v2.252h7.884v-2.253ZM42.799 15.768H6.758v2.253h36.04v-2.253ZM42.799 20.273H6.758v2.253h36.04v-2.253ZM42.799 24.778H6.758v2.253h36.04v-2.253ZM28.157 29.283h-21.4v2.253h21.4v-2.253ZM28.157 33.789h-21.4v2.252h21.4V33.79ZM47.304 15.768h-2.253v2.253h2.253v-2.253ZM47.304 20.273h-2.253v2.253h2.253v-2.253ZM47.304 24.778h-2.253v2.253h2.253v-2.253ZM32.662 29.283H30.41v2.253h2.252v-2.253ZM32.662 33.789H30.41v2.252h2.252V33.79Z" fill="#63A63E"/></svg>