<svg width="70" height="70" viewBox="0 0 70 70" fill="none" xmlns="http://www.w3.org/2000/svg">
<path d="M65.5624 33.7887C60.8545 33.7887 56.4845 31.4505 53.8727 27.5321L52.9356 26.1265L51.9985 27.5321C49.3866 31.4505 45.0166 33.7887 40.3088 33.7887H36.0412V51.8498C36.0412 56.2153 38.0066 60.3184 41.2909 63.0722H18.0206V58.567H32.6624V38.2938H9.01031V47.3041H2.25258V2.25258H51.8093V22.5258H54.0619V0H0V48.8967L16.4281 65.3248H44.7531L52.9356 70L62.4527 64.5623C67.0029 61.9628 69.8299 57.0905 69.8299 51.8498V33.7887H65.5624ZM15.768 61.4796L3.84515 49.5567H15.768V61.4796ZM11.2629 47.3041V40.5464H30.4098V56.3145H18.0206V47.3041H11.2629ZM67.5773 51.8498C67.5773 56.2852 65.1851 60.4063 61.3354 62.607L52.9356 67.4073L44.5357 62.607C40.6861 60.4063 38.2938 56.2852 38.2938 51.8498V36.0413H40.3088C45.2419 36.0413 49.8552 33.8281 52.9356 30.0516C56.016 33.8281 60.6293 36.0413 65.5624 36.0413H67.5773V51.8498Z" fill="#63A63E"/>
<path d="M63.0722 45.0516V51.8499C63.0722 54.6724 61.5494 57.2955 59.0997 58.6955L60.217 60.6507C63.3673 58.8509 65.3248 55.4788 65.3248 51.8499V45.0516H63.0722Z" fill="#63A63E"/>
<path d="M6.75764 4.50513V11.2629H47.3041V4.50513H6.75764ZM45.0515 9.01028H9.01022V6.75771H45.0515V9.01028Z" fill="#63A63E"/>
<path d="M62.2759 38.6239L47.3041 53.5957L43.5953 49.8868L42.0027 51.4794L47.3041 56.7808L63.8685 40.2165L62.2759 38.6239Z" fill="#63A63E"/>
<path d="M28.1573 42.799H13.5155V45.0515H28.1573V42.799Z" fill="#63A63E"/>
<path d="M28.1572 47.3041H20.2732V49.5567H28.1572V47.3041Z" fill="#63A63E"/>
<path d="M28.1572 51.8092H20.2732V54.0618H28.1572V51.8092Z" fill="#63A63E"/>
<path d="M42.7989 15.7681H6.75764V18.0206H42.7989V15.7681Z" fill="#63A63E"/>
<path d="M42.7989 20.2732H6.75764V22.5258H42.7989V20.2732Z" fill="#63A63E"/>
<path d="M42.7989 24.7783H6.75764V27.0309H42.7989V24.7783Z" fill="#63A63E"/>
<path d="M28.1571 29.2834H6.75764V31.536H28.1571V29.2834Z" fill="#63A63E"/>
<path d="M28.1571 33.7887H6.75764V36.0413H28.1571V33.7887Z" fill="#63A63E"/>
<path d="M47.3041 15.7681H45.0515V18.0206H47.3041V15.7681Z" fill="#63A63E"/>
<path d="M47.3041 20.2732H45.0515V22.5258H47.3041V20.2732Z" fill="#63A63E"/>
<path d="M47.3041 24.7783H45.0515V27.0309H47.3041V24.7783Z" fill="#63A63E"/>
<path d="M32.6623 29.2834H30.4097V31.536H32.6623V29.2834Z" fill="#63A63E"/>
<path d="M32.6623 33.7887H30.4097V36.0413H32.6623V33.7887Z" fill="#63A63E"/>
</svg>
