<svg width="34" height="34" viewBox="0 0 34 34" fill="none" xmlns="http://www.w3.org/2000/svg"><path fill-rule="evenodd" clip-rule="evenodd" d="M16.636 0c9.188 0 16.636 7.448 16.636 16.636 0 9.188-7.448 16.636-16.636 16.636C7.448 33.272 0 25.824 0 16.636 0 7.448 7.448 0 16.636 0Z" fill="currentColor"/><path d="M16.457 5.786c-.05 0-.1.01-.146.025-.815.012-1.615.1-2.372.289-.329.08-.654.181-.976.3a.48.48 0 0 0-.216.079c-.412.15-.812.325-1.192.527-.624.324-1.209.726-1.755 1.173a.48.48 0 0 0-.189.138c-.05.043-.102.086-.152.131-.633.563-1.2 1.2-1.688 1.904a9.528 9.528 0 0 0-.401.638.48.48 0 0 0-.106.199c-.555.98-.955 2.061-1.166 3.203a.48.48 0 0 0-.047.217 6.603 6.603 0 0 0-.072.479 10.613 10.613 0 0 0 .072 3.008.48.48 0 0 0 .047.216c.211 1.141.61 2.222 1.164 3.202a.48.48 0 0 0 .108.201c.126.217.257.432.4.638a10.878 10.878 0 0 0 1.687 1.903c.05.046.101.087.152.13h.001a.48.48 0 0 0 .19.14h.001c.547.447 1.13.85 1.754 1.173.38.202.78.377 1.192.527a.48.48 0 0 0 .215.08c.323.118.648.219.977.299.757.19 1.557.277 2.372.289a.48.48 0 0 0 .307 0c.814-.012 1.614-.1 2.372-.289.329-.08.653-.181.976-.3a.48.48 0 0 0 .215-.079 9.55 9.55 0 0 0 1.193-.527 10.244 10.244 0 0 0 1.755-1.173.479.479 0 0 0 .188-.138 10.88 10.88 0 0 0 1.84-2.034v-.002c.144-.206.276-.42.402-.637a.479.479 0 0 0 .106-.199c.554-.98.954-2.061 1.165-3.203a.48.48 0 0 0 .047-.217c.028-.156.055-.313.072-.479a10.62 10.62 0 0 0-.072-3.008.48.48 0 0 0-.047-.216 10.325 10.325 0 0 0-1.163-3.202.48.48 0 0 0-.108-.201 9.517 9.517 0 0 0-.401-.638 10.703 10.703 0 0 0-1.689-1.904c-.049-.045-.1-.087-.15-.129a.48.48 0 0 0-.191-.14c-.547-.447-1.13-.85-1.754-1.173a9.548 9.548 0 0 0-1.192-.527.48.48 0 0 0-.215-.08 9.132 9.132 0 0 0-.977-.299 10.437 10.437 0 0 0-2.372-.289.48.48 0 0 0-.161-.025Zm-3.597.643-.01.005h-.005l.015-.005Zm7.209 0 .014.006-.005-.001-.009-.005Zm-4.085.382V8.73c-.46.029-.922.057-1.356.163h-.001c-.111.027-.22.068-.33.1l-.655-1.8c.174-.055.343-.116.526-.161l.003-.001c.577-.144 1.195-.189 1.813-.22Zm.96 0c.619.031 1.237.076 1.813.22h.003c.184.046.352.107.527.161l-.656 1.801c-.11-.032-.218-.073-.33-.1-.435-.106-.896-.134-1.357-.163V6.81Zm-4.202.716.656 1.803c-.168.073-.34.135-.503.224-.258.136-.488.325-.731.49a.48.48 0 0 0-.262.123l-1.208-1.438c.419-.317.842-.633 1.307-.874l.004-.002c.24-.127.49-.222.737-.326Zm7.444 0c.248.104.498.199.738.326l.004.002c.464.241.888.557 1.307.874l-1.208 1.438a.48.48 0 0 0-.262-.122c-.244-.165-.473-.355-.73-.49-.164-.089-.336-.152-.504-.225l.655-1.803ZM9.95 9.333l1.238 1.476c-.38.363-.745.745-1.046 1.181-.027.038-.047.078-.072.117l-1.664-.961c.052-.082.1-.168.154-.246a9.72 9.72 0 0 1 1.39-1.567Zm13.03 0c.511.475.99.988 1.39 1.566v.001c.055.078.103.164.155.246l-1.664.96c-.026-.038-.046-.078-.072-.116l-.002-.002c-.301-.435-.665-.817-1.045-1.179l1.239-1.476Zm-6.995.357v1.887c-.7.07-1.355.295-1.935.635l-1.115-1.535c.14-.087.262-.197.408-.274.002 0 .004-.002.005-.003.244-.132.505-.243.772-.343a.483.483 0 0 0 .105-.04c.202-.074.41-.138.631-.192.361-.087.747-.108 1.13-.135Zm.96 0c.383.027.768.048 1.13.136l-.001-.001c.223.054.43.118.633.192a.48.48 0 0 0 .107.041 6.08 6.08 0 0 1 .773.345c.147.077.269.187.409.274l-1.116 1.535a4.758 4.758 0 0 0-1.935-.635V9.69Zm-4.803 1.528 1.133 1.56a4.823 4.823 0 0 0-1.201 1.644l-1.823-.594a5.79 5.79 0 0 1 .372-.789.481.481 0 0 0 .055-.098 5.86 5.86 0 0 1 .253-.403l.001-.002a6.79 6.79 0 0 1 1.076-1.215l.002-.002c.03-.027.047-.04.068-.058l.002-.001a.465.465 0 0 0 .061-.042Zm8.647 0c.019.015.04.028.06.04.022.018.04.033.071.061l.002.002a6.79 6.79 0 0 1 1.077 1.217c.09.128.172.264.253.404.015.035.034.07.057.1v.001c.144.246.263.511.374.784l-1.826.595a4.822 4.822 0 0 0-1.201-1.644l1.133-1.56Zm-12.844.77 1.664.96c-.11.223-.234.442-.32.676v.001c-.025.065-.034.137-.057.202a.48.48 0 0 0-.099.354 7.024 7.024 0 0 0-.104.37l-1.894-.333a9.35 9.35 0 0 1 .81-2.23Zm17.04 0c.36.698.633 1.445.81 2.23l-1.892.334a7.015 7.015 0 0 0-.105-.38.48.48 0 0 0-.093-.338c-.025-.068-.032-.142-.059-.21-.089-.233-.211-.453-.323-.677l1.662-.96Zm-8.576.527a.481.481 0 0 0 .116 0c.78.012 1.504.253 2.104.662a.48.48 0 0 0 .175.131 3.83 3.83 0 0 1 1.275 1.755.48.48 0 0 0 .072.214c.099.342.154.702.154 1.075 0 .374-.056.733-.154 1.074a.48.48 0 0 0-.072.216 3.828 3.828 0 0 1-1.273 1.753.48.48 0 0 0-.177.133c-.6.41-1.326.65-2.108.662a.48.48 0 0 0-.116 0 3.828 3.828 0 0 1-3.554-2.548.48.48 0 0 0-.071-.214 3.852 3.852 0 0 1-.155-1.076c0-.373.056-.732.155-1.073a.48.48 0 0 0 .071-.216 3.828 3.828 0 0 1 3.558-2.548Zm6.557 2.229c.032.132.084.256.109.392a.48.48 0 0 0 .02.11c.015.1.03.198.04.29v.005c.032.266.05.54.05.811 0 .272-.018.546-.05.812v.004c-.01.094-.025.192-.04.294a.48.48 0 0 0-.02.106c-.025.137-.077.261-.11.393l-1.811-.59c.071-.328.111-.669.111-1.018 0-.35-.04-.69-.111-1.02l1.812-.59Zm-13 0 1.81.59a4.782 4.782 0 0 0 0 2.038l-1.81.588c-.033-.131-.086-.257-.11-.392a.48.48 0 0 0-.02-.108c-.016-.101-.03-.2-.041-.292v-.004a6.93 6.93 0 0 1-.05-.812 6.932 6.932 0 0 1 .05-.815c.01-.094.025-.192.04-.294a.48.48 0 0 0 .02-.106c.025-.135.078-.26.112-.392Zm-3.027.414 1.899.335c-.031.28-.053.568-.053.86 0 .291.022.579.053.86l-1.899.334c0-.01-.003-.02-.004-.03l-.001-.008a9.64 9.64 0 0 1 0-2.32l.005-.03Zm19.052 0 .005.03v.008a9.654 9.654 0 0 1 0 2.32l-.005.03-1.898-.334c.03-.28.052-.568.052-.86 0-.291-.021-.579-.052-.86l1.898-.334ZM9.028 18.153c.03.126.067.25.104.372a.48.48 0 0 0 .099.353c.023.065.032.137.057.202.086.235.21.454.32.678l-1.664.96a9.35 9.35 0 0 1-.81-2.23l1.894-.335Zm14.874 0 1.892.334a9.348 9.348 0 0 1-.81 2.23l-1.662-.959c.112-.224.234-.444.323-.677.027-.068.034-.143.059-.211a.48.48 0 0 0 .093-.34c.038-.124.075-.25.105-.377Zm-11.829.13c.28.631.692 1.19 1.201 1.644l-1.133 1.56a.476.476 0 0 0-.06-.04l-.072-.061-.002-.002a6.79 6.79 0 0 1-1.076-1.215v-.002a5.822 5.822 0 0 1-.254-.404.484.484 0 0 0-.056-.1v-.001a5.786 5.786 0 0 1-.371-.785l1.823-.594Zm8.782 0 1.827.595a6.18 6.18 0 0 1-.375.787.479.479 0 0 0-.055.1 5.86 5.86 0 0 1-.255.404 6.79 6.79 0 0 1-1.076 1.215l-.002.002-.067.058-.002.001a.472.472 0 0 0-.062.042l-1.133-1.56a4.822 4.822 0 0 0 1.2-1.644Zm-6.806 2.21c.58.34 1.235.565 1.935.635v1.887c-.382-.027-.767-.047-1.13-.136l.002.001a5.88 5.88 0 0 1-.633-.192.48.48 0 0 0-.107-.041 6.08 6.08 0 0 1-.769-.342l-.005-.003c-.146-.077-.268-.187-.408-.274l1.115-1.535Zm4.83 0 1.116 1.535c-.14.087-.262.197-.409.274l-.005.003a6.094 6.094 0 0 1-.771.343.483.483 0 0 0-.105.04 5.88 5.88 0 0 1-.632.192h.001c-.362.088-.747.108-1.13.135v-1.887c.7-.07 1.356-.295 1.935-.635Zm-8.81.105c.026.04.047.08.074.119.3.435.664.817 1.044 1.179L9.95 23.372c-.512-.48-.99-.989-1.39-1.566v-.001c-.054-.078-.102-.164-.154-.246l1.664-.96Zm12.79 0 1.665.961c-.052.082-.1.168-.155.246-.4.578-.878 1.088-1.39 1.567l-1.238-1.476c.38-.362.744-.744 1.045-1.18l.002-.001c.026-.038.046-.078.072-.117Zm-10.958 1.94a.48.48 0 0 0 .263.123c.243.165.473.354.73.49h.001c.163.088.335.15.503.224l-.656 1.803c-.247-.104-.497-.199-.737-.326L12 24.85c-.465-.241-.888-.557-1.307-.874l1.207-1.438Zm9.126.001 1.208 1.437c-.42.317-.843.633-1.307.874l-.004.002c-.24.127-.49.222-.738.326l-.655-1.803c.168-.073.34-.136.502-.224h.001c.258-.136.488-.325.73-.49a.48.48 0 0 0 .263-.122Zm-6.73 1.173c.11.032.219.073.33.1.435.106.897.134 1.357.163v1.92c-.618-.032-1.236-.077-1.813-.22l-.003-.002c-.183-.045-.352-.106-.526-.16l.656-1.801Zm4.334 0 .656 1.8c-.175.055-.343.116-.527.161l-.003.001c-.576.144-1.194.189-1.813.22v-1.919c.46-.029.922-.057 1.357-.163.112-.027.22-.068.33-.1Zm-5.786 2.558.005.001.01.005-.014-.006Zm7.238 0-.014.006.01-.005h.004Z" fill="#fefafa"/></svg>
